<svg version="1.1" id="Layer_1" xmlns:x="ns_extend;" xmlns:i="ns_ai;" xmlns:graph="ns_graphs;" xmlns="http://www.w3.org/2000/svg" xmlns:xlink="http://www.w3.org/1999/xlink" x="0px" y="0px" viewBox="0 0 219.6 50" style="enable-background:new 0 0 219.6 50;" xml:space="preserve">
 <style type="text/css">
  .st0{fill-rule:evenodd;clip-rule:evenodd;fill:#003DFF;}
	.st1{fill:#003DFF;}
 </style>
 <g>
  <path class="st0" d="M107,27.5V0.6c0-0.4-0.3-0.6-0.7-0.6l-5,0.8c-0.3,0-0.5,0.3-0.5,0.6l0,27.3c0,1.3,0,9.3,9.6,9.5
		c0.3,0,0.6-0.3,0.6-0.6v-4.1c0-0.3-0.2-0.6-0.5-0.6C107,32.6,107,28.2,107,27.5L107,27.5z">
  </path>
  <path class="st1" d="M190.2,10.5h-5.1c-0.3,0-0.6,0.3-0.6,0.6c0,0,0,0,0,0v26.6c0,0.3,0.3,0.6,0.6,0.6l0,0h5.1
		c0.3,0,0.6-0.3,0.6-0.6V11.1C190.8,10.7,190.6,10.5,190.2,10.5z">
  </path>
  <path class="st0" d="M185.2,7.1h5.1c0.3,0,0.6-0.3,0.6-0.6v-6c0-0.4-0.3-0.6-0.7-0.6l-5.1,0.8c-0.3,0-0.5,0.3-0.5,0.6v5.2
		C184.6,6.9,184.8,7.1,185.2,7.1L185.2,7.1L185.2,7.1z M176.4,27.5V0.6c0-0.4-0.3-0.6-0.7-0.6l-5,0.8c-0.3,0-0.5,0.3-0.5,0.6l0,27.3
		c0,1.3,0,9.3,9.6,9.5c0.3,0,0.6-0.3,0.6-0.6v-4.1c0-0.3-0.2-0.6-0.5-0.6C176.4,32.6,176.4,28.2,176.4,27.5L176.4,27.5L176.4,27.5z
		 M163.2,14.3c-1.1-1.2-2.5-2.2-4.1-2.8c-1.6-0.7-3.3-1-5.2-1c-1.9,0-3.6,0.3-5.2,1c-1.6,0.7-2.9,1.6-4.1,2.8
		c-1.1,1.2-2,2.7-2.7,4.4c-0.6,1.7-0.9,3.7-0.9,5.8s0.3,3.7,1,5.4c0.6,1.7,1.5,3.2,2.6,4.4c1.1,1.2,2.5,2.2,4.1,2.8
		c1.6,0.7,4,1,5.2,1c1.2,0,3.7-0.4,5.3-1c1.6-0.7,2.9-1.6,4.1-2.8c1.1-1.2,2-2.7,2.6-4.4c0.6-1.7,0.9-3.3,0.9-5.4s-0.3-4.1-1-5.8
		C165.2,17,164.3,15.5,163.2,14.3L163.2,14.3L163.2,14.3z M158.7,30.6c-1.1,1.6-2.8,2.4-4.8,2.4c-2.1,0-3.7-0.8-4.8-2.4
		c-1.1-1.6-1.7-3.4-1.7-6.1c0-2.7,0.6-4.9,1.7-6.5c1.1-1.6,2.8-2.4,4.8-2.4c2.1,0,3.7,0.8,4.8,2.4c1.1,1.6,1.7,3.8,1.7,6.5
		C160.5,27.2,159.9,29.1,158.7,30.6L158.7,30.6L158.7,30.6z M89.4,10.5h-4.9c-4.8,0-9.1,2.5-11.6,6.4c-1.5,2.3-2.3,5-2.3,7.9
		c0,4.5,2,8.5,5.2,11.1c0.3,0.3,0.6,0.5,0.9,0.7c1.3,0.8,2.8,1.3,4.5,1.3c0.1,0,0.2,0,0.4,0c0,0,0.1,0,0.1,0c0.1,0,0.2,0,0.3,0
		c0,0,0.1,0,0.1,0c0.1,0,0.2,0,0.3,0c0,0,0,0,0.1,0c3.3-0.5,6.2-3.1,7.1-6.3v5.8c0,0.3,0.3,0.6,0.6,0.6h5c0.3,0,0.6-0.3,0.6-0.6
		V11.1c0-0.3-0.3-0.6-0.6-0.6H89.4L89.4,10.5z M89.4,31.2c-1.2,1-2.8,1.4-4.5,1.5c0,0,0,0,0,0c-0.1,0-0.2,0-0.3,0
		c-4.2,0-7.7-3.6-7.7-7.9c0-1,0.2-2,0.5-2.9c1.1-2.9,3.9-5,7.1-5h4.9V31.2z M213.4,10.5h-4.9c-4.8,0-9.1,2.5-11.6,6.4
		c-1.5,2.3-2.3,5-2.3,7.9c0,4.5,2,8.5,5.2,11.1c0.3,0.3,0.6,0.5,0.9,0.7c1.3,0.8,2.8,1.3,4.5,1.3c0.1,0,0.2,0,0.4,0c0,0,0.1,0,0.1,0
		c0.1,0,0.2,0,0.3,0c0,0,0.1,0,0.1,0c0.1,0,0.2,0,0.3,0c0,0,0,0,0.1,0c3.3-0.5,6.2-3.1,7.1-6.3v5.8c0,0.3,0.3,0.6,0.6,0.6h5
		c0.3,0,0.6-0.3,0.6-0.6V11.1c0-0.3-0.3-0.6-0.6-0.6H213.4L213.4,10.5z M213.4,31.2c-1.2,1-2.8,1.4-4.5,1.5c0,0,0,0,0,0
		c-0.1,0-0.2,0-0.3,0c-4.2,0-7.7-3.6-7.7-7.9c0-1,0.2-2,0.5-2.9c1.1-2.9,3.9-5,7.1-5h4.9V31.2z M131.4,10.5h-4.9
		c-4.8,0-9.1,2.5-11.6,6.4c-1.2,1.8-2,4-2.2,6.3c-0.1,1.1-0.1,2.2,0,3.3c0.4,3.8,2.3,7.2,5.1,9.5c0.3,0.3,0.6,0.5,0.9,0.7
		c1.3,0.8,2.8,1.3,4.5,1.3c1.8,0,3.5-0.6,4.8-1.6c1.6-1.2,2.9-2.9,3.4-4.8v5h0v1.1c0,2.2-0.6,3.8-1.7,4.9c-1.2,1.1-3.1,1.7-5.8,1.7
		c-1.1,0-2.9-0.1-4.7-0.2c-0.3,0-0.5,0.1-0.6,0.4l-1.3,4.3c-0.1,0.3,0.1,0.7,0.5,0.8c2.2,0.3,4.3,0.5,5.5,0.5
		c4.9,0,8.5-1.1,10.9-3.2c2.1-1.9,3.3-4.9,3.5-8.9V11.1c0-0.3-0.3-0.6-0.6-0.6L131.4,10.5L131.4,10.5L131.4,10.5z M131.4,16.9
		c0,0,0.1,13.9,0,14.3c-1.2,1-2.7,1.4-4.3,1.5c0,0,0,0,0,0c-0.1,0-0.2,0-0.3,0c-0.1,0-0.3,0-0.4,0c-4-0.2-7.5-3.7-7.5-7.9
		c0-1,0.2-2,0.5-2.9c1.1-2.9,3.9-5,7.1-5H131.4L131.4,16.9L131.4,16.9z">
  </path>
  <path class="st1" d="M25,0C11.3,0,0.2,11,0,24.6C-0.2,38.4,11,49.9,24.8,50c4.3,0,8.4-1,12-3c0.4-0.2,0.4-0.7,0.1-1l-2.3-2.1
		c-0.5-0.4-1.2-0.5-1.7-0.3c-2.5,1.1-5.3,1.6-8.2,1.6c-11.2-0.1-20.2-9.4-20-20.6C4.9,13.6,13.9,4.7,25,4.7h20.3v36L33.7,30.5
		c-0.4-0.3-0.9-0.3-1.2,0.1c-1.8,2.4-4.9,4-8.2,3.7c-4.6-0.3-8.4-4-8.7-8.7c-0.4-5.5,4-10.2,9.4-10.2c4.9,0,9,3.8,9.4,8.6
		c0,0.4,0.2,0.8,0.6,1.1l3,2.7c0.3,0.3,0.9,0.1,1-0.3c0.2-1.2,0.3-2.4,0.2-3.6c-0.5-7-6.2-12.7-13.2-13.1c-8.1-0.5-14.8,5.8-15,13.7
		c-0.2,7.7,6.1,14.4,13.8,14.5c3.2,0.1,6.2-0.9,8.6-2.7l15,13.3c0.6,0.6,1.7,0.1,1.7-0.7v-48C50,0.4,49.5,0,49,0L25,0
		C25,0,25,0,25,0z">
  </path>
 </g>
</svg>