<svg _ngcontent-ng-c586675657="" class="angular-logo" fill="none" viewBox="0 0 223 236" width="32" xmlns="http://www.w3.org/2000/svg"><g _ngcontent-ng-c586675657="" clip-path="url(#a)"><path _ngcontent-ng-c586675657="" d="m222.077 39.192-8.019 125.923L137.387 0l84.69 39.192Zm-53.105 162.825-57.933 33.056-57.934-33.056 11.783-28.556h92.301l11.783 28.556ZM111.039 62.675l30.357 73.803H80.681l30.358-73.803ZM7.937 165.115 0 39.192 84.69 0 7.937 165.115Z" fill="url(#b)"></path><path _ngcontent-ng-c586675657="" d="m222.077 39.192-8.019 125.923L137.387 0l84.69 39.192Zm-53.105 162.825-57.933 33.056-57.934-33.056 11.783-28.556h92.301l11.783 28.556ZM111.039 62.675l30.357 73.803H80.681l30.358-73.803ZM7.937 165.115 0 39.192 84.69 0 7.937 165.115Z" fill="url(#c)"></path></g><defs _ngcontent-ng-c586675657=""><linearGradient _ngcontent-ng-c586675657="" gradientUnits="userSpaceOnUse" id="b" x1="49.009" x2="225.829" y1="213.75" y2="129.722"><stop _ngcontent-ng-c586675657="" stop-color="#E40035"></stop><stop _ngcontent-ng-c586675657="" offset=".24" stop-color="#F60A48"></stop><stop _ngcontent-ng-c586675657="" offset=".352" stop-color="#F20755"></stop><stop _ngcontent-ng-c586675657="" offset=".494" stop-color="#DC087D"></stop><stop _ngcontent-ng-c586675657="" offset=".745" stop-color="#9717E7"></stop><stop _ngcontent-ng-c586675657="" offset="1" stop-color="#6C00F5"></stop></linearGradient><linearGradient _ngcontent-ng-c586675657="" gradientUnits="userSpaceOnUse" id="c" x1="41.025" x2="156.741" y1="28.344" y2="160.344"><stop _ngcontent-ng-c586675657="" stop-color="#FF31D9"></stop><stop _ngcontent-ng-c586675657="" offset="1" stop-color="#FF5BE1" stop-opacity="0"></stop></linearGradient><clipPath _ngcontent-ng-c586675657="" id="a"><path _ngcontent-ng-c586675657="" d="M0 0h223v236H0z" fill="#fff"></path></clipPath></defs></svg>